<svg width="82" height="16" viewBox="0 0 82 16" fill="none" xmlns="http://www.w3.org/2000/svg">
<path d="M1 7C0.447715 7 -1.38369e-07 7.44772 0 8C1.38369e-07 8.55228 0.447715 9 1 9L1 7ZM81.7071 8.7071C82.0976 8.31658 82.0976 7.68342 81.7071 7.29289L75.3431 0.92893C74.9526 0.538406 74.3195 0.538406 73.9289 0.92893C73.5384 1.31945 73.5384 1.95262 73.9289 2.34314L79.5858 8L73.9289 13.6569C73.5384 14.0474 73.5384 14.6805 73.9289 15.0711C74.3195 15.4616 74.9526 15.4616 75.3431 15.0711L81.7071 8.7071ZM1 9L81 9L81 7L1 7L1 9Z" fill="white"/>
</svg>
