<svg width="20" height="18" viewBox="0 0 20 18" fill="none" xmlns="http://www.w3.org/2000/svg">
<path d="M17.5 3.375V2.75C17.5 1.38281 16.3672 0.25 15 0.25H3.75C1.64062 0.25 0 1.92969 0 4V14C0 16.1094 1.64062 17.75 3.75 17.75H17.5C18.8672 17.75 20 16.6562 20 15.25V5.875C20 4.50781 18.8672 3.375 17.5 3.375ZM18.125 15.25C18.125 15.6016 17.8125 15.875 17.5 15.875H3.75C2.69531 15.875 1.875 15.0547 1.875 14V4C1.875 2.98438 2.69531 2.125 3.75 2.125H15C15.3125 2.125 15.625 2.4375 15.625 2.75V4H4.375C4.02344 4 3.75 4.3125 3.75 4.625C3.75 4.97656 4.02344 5.25 4.375 5.25H17.5C17.8125 5.25 18.125 5.5625 18.125 5.875V15.25ZM15 9C14.2969 9 13.75 9.58594 13.75 10.25C13.75 10.9531 14.2969 11.5 15 11.5C15.6641 11.5 16.25 10.9531 16.25 10.25C16.25 9.58594 15.6641 9 15 9Z" fill="#FBA852"/>
</svg>
